<svg id="Capa_1" data-name="Capa 1" xmlns="http://www.w3.org/2000/svg" viewBox="0 0 512 501.34"><defs><style>.cls-1{fill:#fff;}</style></defs><title>githubWhite</title><path class="cls-1" d="M256,5.33C114.62,5.33,0,120.4,0,262.35A257,257,0,0,0,175.1,506.22c12.8,2.37,17.48-5.56,17.48-12.38,0-6.11-.23-22.27-.36-43.71C121,465.65,106,415.66,106,415.66c-11.61-29.69-28.41-37.6-28.41-37.6-23.27-15.93,1.73-15.61,1.73-15.61,25.69,1.82,39.2,26.49,39.2,26.49,22.84,39.27,59.93,27.94,74.52,21.35,2.31-16.61,8.93-27.94,16.26-34.37-56.83-6.5-116.61-28.54-116.61-127,0-28.06,10-51,26.37-69-2.66-6.5-11.42-32.64,2.5-68,0,0,21.5-6.91,70.4,26.34a241.66,241.66,0,0,1,128.19,0C369,105,390.46,112,390.46,112c14,35.39,5.19,61.51,2.56,68,16.42,18,26.31,40.93,26.31,69,0,98.72-59.84,120.45-116.87,126.82,9.19,7.94,17.38,23.62,17.38,47.58,0,34.37-.32,62.08-.32,70.5,0,6.88,4.61,14.88,17.6,12.35A257,257,0,0,0,512,262.35C512,120.4,397.38,5.33,256,5.33Z" transform="translate(0 -5.33)"/></svg>