<svg id="Capa_1" data-name="Capa 1" xmlns="http://www.w3.org/2000/svg" viewBox="0 0 382.12 290.23"><defs><style>.cls-1{fill:#fff;}</style></defs><title>mailWhite</title><path class="cls-1" d="M336.76,45.94H45.35C20.35,45.94,0,65.48,0,89.5V292.62c0,24,20.35,43.55,45.35,43.55H336.76c25,0,45.36-19.54,45.36-43.55V89.5C382.12,65.48,361.77,45.94,336.76,45.94Zm0,251.78H45.35c-3.67,0-6.9-2.38-6.9-5.1V116.36l131.8,111.27a15,15,0,0,0,9.68,3.54h22.26a15,15,0,0,0,9.67-3.54L343.67,116.35V292.62C343.66,295.34,340.44,297.72,336.76,297.72ZM191.06,193,62.87,84.4H319.25Z" transform="translate(0 -45.94)"/></svg>