<svg id="Layer_1" data-name="Layer 1" xmlns="http://www.w3.org/2000/svg" viewBox="0 0 24 20"><defs><style>.cls-1{fill:#fff;}</style></defs><title>menuWhite</title><path class="cls-1" d="M24,3a.94.94,0,0,0-1-1H1A.94.94,0,0,0,0,3V5A.94.94,0,0,0,1,6H23a.94.94,0,0,0,1-1Z" transform="translate(0 -2)"/><path class="cls-1" d="M24,11a.94.94,0,0,0-1-1H1a.94.94,0,0,0-1,1v2a.94.94,0,0,0,1,1H23a.94.94,0,0,0,1-1Z" transform="translate(0 -2)"/><path class="cls-1" d="M24,19a.94.94,0,0,0-1-1H1a.94.94,0,0,0-1,1v2a.94.94,0,0,0,1,1H23a.94.94,0,0,0,1-1Z" transform="translate(0 -2)"/></svg>